<svg xmlns="http://www.w3.org/2000/svg" viewBox="0 0 512 512">
  <!-- DesapegaUnifor — casa-hexágono com portal e mão (recriação vetorial) -->
  <g fill="#2151D1">
    <!-- silhueta: telhado-seta em cima + diamante embaixo -->
    <path d="M256 36
             L474 192 L474 214 L414 214
             L414 258
             L484 258 L484 298
             L276 478 Q256 494 236 478
             L28 298 L28 258
             L98 258
             L98 214 L38 214 L38 192 Z"/>
  </g>
  <!-- disco branco central -->
  <circle cx="256" cy="282" r="150" fill="#FFFFFF"/>
  <!-- anel azul do disco -->
  <circle cx="256" cy="282" r="126" fill="none" stroke="#2151D1" stroke-width="24"/>
  <!-- portal: arcos concêntricos -->
  <g fill="none" stroke="#2151D1" stroke-linecap="round">
    <path d="M162 356 A94 94 0 0 1 350 356" stroke-width="28"/>
    <path d="M200 362 A56 56 0 0 1 312 362" stroke-width="24"/>
  </g>
  <path d="M230 366 A26 26 0 0 1 282 366 Z" fill="#2151D1"/>
  <!-- mão acolhendo (recorte branco + palma azul) -->
  <path d="M118 368 Q198 338 260 354 Q330 370 384 350 L396 380 Q330 410 250 394 Q176 380 122 394 Z"
        fill="#FFFFFF"/>
  <path d="M132 388 Q208 364 260 376 Q326 391 378 372 Q392 378 384 392 Q354 420 298 416 Q220 412 164 402 Q140 397 132 388 Z"
        fill="#2151D1"/>
</svg>
