<?xml version="1.0" standalone="no"?>
<!DOCTYPE svg PUBLIC "-//W3C//DTD SVG 20010904//EN"
 "http://www.w3.org/TR/2001/REC-SVG-20010904/DTD/svg10.dtd">
<svg version="1.0" xmlns="http://www.w3.org/2000/svg"
 width="1254.000000pt" height="1254.000000pt" viewBox="0 0 1254.000000 1254.000000"
 preserveAspectRatio="xMidYMid meet">

<g transform="translate(0.000000,1254.000000) scale(0.100000,-0.100000)"
fill="#2151D1" stroke="none">
<path d="M6165 11031 c-96 -27 -193 -80 -490 -266 -181 -114 -427 -269 -545
-343 -245 -153 -675 -427 -1220 -776 -356 -227 -461 -295 -730 -469 -63 -41
-320 -206 -570 -366 -288 -185 -472 -310 -502 -340 -71 -73 -93 -166 -63 -267
22 -75 67 -128 137 -163 l61 -31 524 0 c287 0 523 -2 523 -4 0 -2 -16 -42 -36
-88 -149 -346 -239 -667 -291 -1028 -25 -179 -25 -682 0 -860 51 -354 147
-698 274 -985 24 -55 47 -106 50 -112 4 -10 -101 -13 -504 -13 -557 0 -570 -1
-649 -58 -88 -64 -126 -204 -84 -315 12 -31 32 -70 46 -86 13 -16 93 -73 177
-127 245 -158 1524 -988 1872 -1217 660 -432 1003 -657 1445 -948 485 -319
511 -332 649 -345 76 -7 162 8 236 41 27 12 139 80 247 151 109 71 258 168
330 216 897 585 1059 691 1591 1040 89 58 324 211 522 339 198 128 529 343
735 477 599 391 554 356 590 450 60 156 -18 321 -173 367 -42 12 -138 15 -559
15 -279 0 -508 1 -508 3 0 2 11 27 25 55 142 295 257 700 311 1097 25 183 25
607 0 795 -49 369 -143 715 -271 1002 -30 67 -55 125 -55 129 0 5 240 10 533
11 524 3 533 3 572 25 95 51 144 137 145 250 0 61 -5 80 -33 135 -31 61 -38
67 -182 163 -622 417 -3034 1951 -3675 2337 -99 60 -133 77 -189 94 -54 18
-223 27 -266 15z m520 -1980 c578 -99 1050 -341 1440 -736 323 -327 535 -694
678 -1170 51 -170 87 -404 87 -562 -1 -604 -92 -1017 -326 -1484 -44 -88 -133
-239 -185 -316 -16 -23 -29 -44 -29 -46 0 -3 42 -7 93 -9 79 -4 101 -9 155
-37 191 -97 269 -311 188 -511 -63 -155 -313 -467 -534 -667 -301 -271 -615
-440 -975 -523 -97 -22 -136 -22 -81 1 339 142 663 364 920 631 196 204 483
591 498 672 20 108 -58 206 -176 222 -56 8 -165 -22 -222 -61 -20 -14 -110
-87 -199 -163 -252 -213 -363 -294 -514 -372 l-83 -42 0 -52 c0 -152 -99 -290
-250 -347 -224 -85 -782 -85 -1073 0 -110 32 -193 79 -174 97 3 4 93 1 199 -6
123 -8 294 -11 473 -7 391 8 501 30 571 109 42 48 57 97 52 169 -5 73 -41 122
-113 159 -50 24 -52 25 -345 26 -495 2 -609 30 -1116 281 -256 127 -375 172
-520 198 -113 21 -312 21 -427 1 -226 -41 -530 -173 -862 -374 -99 -61 -182
-108 -184 -106 -12 11 99 154 194 250 121 122 217 196 348 272 l86 49 -63 84
c-138 185 -299 482 -381 703 -111 300 -164 558 -185 900 -42 665 183 1327 634
1868 329 393 778 685 1276 828 129 37 327 78 430 89 150 17 558 6 695 -18z"/>
<path d="M6008 7679 c-267 -35 -585 -152 -815 -301 -364 -235 -672 -624 -813
-1023 -107 -305 -128 -664 -59 -1009 21 -104 88 -326 99 -326 4 0 7 63 8 141
4 476 163 934 442 1274 70 85 233 244 315 306 614 469 1408 498 2020 74 437
-303 715 -774 786 -1335 16 -121 16 -422 0 -522 -8 -53 -9 -83 -2 -95 8 -15
14 -8 39 47 71 155 128 353 157 544 22 139 17 453 -10 596 -31 173 -126 443
-220 630 -268 533 -835 925 -1445 1000 -99 12 -405 11 -502 -1z"/>
<path d="M6010 6396 c-518 -96 -925 -438 -1093 -922 -47 -136 -69 -269 -68
-427 0 -142 10 -171 56 -183 26 -6 73 16 80 39 2 7 15 55 30 107 70 256 239
499 460 663 143 106 353 194 518 216 486 67 905 -134 1159 -556 136 -224 196
-501 168 -771 -10 -100 -10 -116 4 -138 20 -29 70 -33 97 -8 28 25 94 205 126
339 25 109 28 137 28 305 -1 174 -2 192 -32 310 -133 525 -511 899 -1029 1015
-98 22 -406 29 -504 11z"/>
<path d="M6062 5244 c-275 -60 -513 -268 -608 -530 l-24 -64 28 -12 c15 -6
160 -75 322 -154 450 -217 514 -234 948 -241 195 -4 287 -2 294 5 20 20 22
249 4 340 -65 320 -303 571 -620 652 -93 24 -246 26 -344 4z"/>
</g>
</svg>
